# xmcd
#
# Track frame offsets: 
#        150
#        9969
#        21242
#        34361
#        44490
#        57134
#        67248
#        80167
#        93788
#        104528
#        114712
#        128150
#        143376
#        164567
#        174158
#        185135
#        198104
#        209406
#        222843
#        232115
#
# Disc length: 3228 seconds
#
# Revision: 0
# Processed by: cddbd v1.5.2PL0 Copyright (c) Steve Scherf et al.
# Submitted via: ExactAudioCopyFreeDBPlugin 1.0
#
DISCID=220c9a14
DTITLE=The Golden Gate Quartet -   Platinum Collection
DYEAR=2009
DGENRE=Gospel
TTITLE0=My heart is an open book
TTITLE1=Alabama Bound
TTITLE2=Steal away
TTITLE3=Sweet Georgia Brown
TTITLE4=Down by the Riverside
TTITLE5=Primerose Lane
TTITLE6=The King Of Kings
TTITLE7=Amen
TTITLE8=Oh! Why
TTITLE9=I looked down the Road and wondered
TTITLE10=Glory Hallelujah
TTITLE11=I'm So Glad
TTITLE12=Oh Happy Day
TTITLE13=Basin Street Blues
TTITLE14=The World Outside
TTITLE15=The Bith of the Blues
TTITLE16=Mary Mary
TTITLE17=The Dock Of The Bay
TTITLE18=Honey Pie
TTITLE19=On the Sunny Side of the Street
EXTD=
EXTT0=
EXTT1=
EXTT2=
EXTT3=
EXTT4=
EXTT5=
EXTT6=
EXTT7=
EXTT8=
EXTT9=
EXTT10=
EXTT11=
EXTT12=
EXTT13=
EXTT14=
EXTT15=
EXTT16=
EXTT17=
EXTT18=
EXTT19=
PLAYORDER=
